<svg width="42" height="48" viewBox="0 0 42 48" fill="none" xmlns="http://www.w3.org/2000/svg">
<g clip-path="url(#clip0_1_706)">
<path d="M6.31878 34.074C6.42636 34.1242 6.40867 34.1028 6.40499 34.0372C6.42046 33.9547 6.42194 33.8611 6.48236 33.8471C6.62606 33.8125 6.76312 33.8007 6.82724 33.6518C6.86849 33.5516 6.96946 33.5133 7.06009 33.461C7.15073 33.4094 7.23179 33.3446 7.22442 33.1928C7.22442 33.1846 7.25684 33.1994 7.27379 33.2016C7.49192 33.2348 7.48749 33.0572 7.52581 32.9054C7.55528 32.7771 7.89942 32.9282 7.85299 32.6924C7.82131 32.5369 7.95616 32.559 8.01806 32.4986C8.1028 32.4175 8.19049 32.3365 8.27155 32.2503C8.3526 32.164 8.42261 32.069 8.48156 31.9665C8.52946 31.8811 8.59726 31.8303 8.66137 31.764C8.81906 31.5967 8.97381 31.4213 9.08212 31.2172C9.12707 31.1354 9.16102 31.0595 9.23618 30.9939C9.32384 30.9173 9.39015 30.8222 9.45351 30.7257C9.51543 30.6284 9.57513 30.5282 9.63116 30.428C9.67977 30.3447 9.70774 30.257 9.78146 30.1826C9.86323 30.103 9.93838 29.9704 10.0099 29.8355C10.0453 29.7677 10.0806 29.7 10.1138 29.6365C10.1462 29.5732 10.1749 29.5128 10.2037 29.4641C10.2155 29.442 10.2641 29.3499 10.3319 29.2231C10.3997 29.0964 10.4756 28.9284 10.5567 28.7634C10.7115 28.4303 10.8551 28.0906 10.8787 28.0434C10.9399 27.9321 10.9862 27.8135 11.0298 27.6942L10.2847 27.84C10.3474 27.9042 10.4123 27.9668 10.4734 28.0316C10.5449 28.1075 10.6245 28.1694 10.6842 28.2622C10.7962 28.4369 10.9649 28.5659 11.1042 28.7191C11.1778 28.7995 11.2582 28.871 11.3253 28.9616C11.4447 29.123 11.662 29.1981 11.7158 29.4236C11.7224 29.4501 11.7888 29.4295 11.8131 29.4449C11.9892 29.5622 12.0054 29.8319 12.2663 29.8687C12.2707 29.8694 12.2626 29.8849 12.2611 29.893C12.2243 30.1067 12.4004 30.0986 12.5536 30.1354C12.6796 30.1656 12.5073 30.495 12.7342 30.4729C12.7585 30.4707 12.7902 30.4641 12.8005 30.4759C12.9317 30.6225 12.9604 30.8671 13.2301 30.8819C13.2382 30.8827 13.2221 30.9143 13.2191 30.9313C13.1808 31.1472 13.3804 31.1191 13.5102 31.1759C13.6273 31.2267 13.5477 31.4677 13.7061 31.5304C13.9206 31.6144 14.0731 31.7831 14.1586 31.9909C14.1969 32.0845 14.2706 32.125 14.3524 32.1581L14.2736 31.744C14.2765 31.7875 14.2817 31.8317 14.2824 31.8774C14.2847 31.9946 13.9486 31.985 14.0577 32.1758C14.0657 32.1899 14.0643 32.2031 14.0761 32.2171C14.152 32.3041 14.121 32.3387 14.0223 32.3579C13.8071 32.3984 13.8941 32.5605 13.9125 32.7123C13.9295 32.8384 13.5662 32.7948 13.6671 32.9946C13.6745 33.0093 13.6796 33.024 13.6789 33.0358C13.6723 33.139 13.5838 33.2038 13.5175 33.2775C13.4475 33.3497 13.3981 33.4315 13.4689 33.5782C13.4733 33.5877 13.418 33.5811 13.3952 33.5848C13.2382 33.612 13.2419 33.7321 13.2308 33.8479C13.2198 33.9621 13.1985 34.0748 13.0098 34.0785C12.9597 34.0792 13.0312 34.2008 13.0083 34.2443C12.9162 34.4226 12.8447 34.6238 12.6716 34.7424C12.5514 34.8257 12.5139 34.9244 12.5124 35.0828C12.5094 35.2133 12.1579 35.1035 12.2213 35.3172C12.2279 35.34 12.2368 35.3673 12.2279 35.3798C12.1152 35.536 11.8824 35.5927 11.9052 35.8565C11.9059 35.8691 11.8544 35.8492 11.8315 35.8499C11.7586 35.8529 11.6871 35.9178 11.6149 36.0128C11.5419 36.1071 11.4719 36.2368 11.3879 36.3547C11.3061 36.4748 11.2221 36.5935 11.1351 36.6775C11.0482 36.7607 10.9546 36.8027 10.8661 36.7806C10.8168 36.7681 10.8514 36.8993 10.8175 36.9346C10.746 37.0069 10.6856 37.0938 10.609 37.1609C10.5338 37.2301 10.452 37.2898 10.3511 37.3223C10.2811 37.3443 10.2398 37.3886 10.2081 37.4424C10.1757 37.4947 10.1499 37.5543 10.1167 37.6126C10.0571 37.712 9.76672 37.522 9.77923 37.7526C9.78665 37.9125 9.66431 37.8447 9.59648 37.8764C9.49702 37.9206 9.40489 37.9774 9.31499 38.0378C9.27076 38.0694 9.22358 38.0959 9.1772 38.1225C9.13073 38.1497 9.08435 38.1763 9.03645 38.2021C8.96425 38.2412 8.90455 38.2979 8.81906 38.3236C8.63558 38.3679 8.46535 38.4416 8.30102 38.5307L8.83896 38.7275C8.82644 38.7083 8.81317 38.6899 8.80065 38.6707C8.74906 38.5956 8.69821 38.5277 8.668 38.4394C8.60094 38.2448 8.47567 38.0761 8.37176 37.8977C8.32461 37.8167 8.27008 37.7415 8.23102 37.6546C8.15143 37.4748 8.04163 37.3031 7.937 37.1314C7.88468 37.0459 7.82868 36.9656 7.78962 36.875C7.71667 36.701 7.05346 35.578 6.93114 35.4093C6.86555 35.3172 6.52142 34.7269 6.47205 34.6363C6.38657 34.4786 6.24067 34.3092 6.19792 34.1566C6.19423 34.1426 6.18171 34.1278 6.16697 34.1124L5.27828 33.9253C5.24511 33.9753 5.28122 34.0475 5.40428 34.1367C5.53472 34.2311 5.60325 34.2944 5.51924 34.3541C5.38807 34.4506 5.78526 34.6164 5.78304 34.7063C5.77936 34.8176 5.75431 34.9134 5.89211 35.0497C5.98422 35.1396 5.99306 35.2288 6.01959 35.3201C6.04538 35.4115 6.08813 35.5058 6.24803 35.5936C6.25688 35.5979 6.22961 35.6112 6.22151 35.6208C6.11023 35.7468 6.2974 35.8536 6.44404 35.9679C6.50521 36.0165 6.4632 36.0762 6.43962 36.1388C6.41531 36.2015 6.40941 36.2685 6.53984 36.3193C6.71375 36.3857 6.63858 36.4682 6.67395 36.5478C6.76976 36.7622 6.86186 36.984 7.01809 37.1845C7.0822 37.2669 7.10578 37.3451 7.14189 37.4306C7.23253 37.6428 7.33938 37.8565 7.47939 38.0518C7.53612 38.1313 7.59213 38.1969 7.62013 38.292C7.68572 38.5152 7.83088 38.7127 7.95174 38.9139C7.99816 38.9921 8.05638 39.0561 8.08953 39.146L8.19197 39.4253L8.6061 39.3354C8.61347 39.334 8.62232 39.3317 8.63042 39.3302C8.74463 39.3089 8.8898 39.2462 9.03279 39.1785C9.17863 39.1158 9.30838 39.0252 9.41374 38.9758C9.43662 38.9647 9.53161 38.9139 9.66136 38.8439C9.78959 38.7702 9.94428 38.6648 10.1034 38.5646C10.1433 38.5395 10.1823 38.5138 10.2214 38.4887C10.2582 38.4614 10.295 38.4342 10.3304 38.4084C10.4019 38.3561 10.469 38.3068 10.5279 38.2632C10.6473 38.177 10.7335 38.1144 10.7556 38.0989C10.9399 37.9781 11.1027 37.8211 11.2641 37.6708C11.3422 37.5956 11.4063 37.5138 11.5021 37.4505C11.6856 37.334 11.8072 37.1484 11.9568 36.9951C12.0349 36.9132 12.1056 36.8285 12.1897 36.7475C12.2655 36.6767 12.3171 36.5839 12.3775 36.4984C12.4372 36.4122 12.5087 36.337 12.6163 36.2899C12.6421 36.2788 12.6119 36.2147 12.6244 36.1874C12.6708 36.0887 12.76 36.0246 12.8388 35.9502C12.9184 35.8772 12.9833 35.7918 12.9767 35.6569C12.9767 35.6524 12.9936 35.6576 13.0017 35.6569C13.2205 35.6488 13.1808 35.4734 13.1874 35.315C13.1926 35.1861 13.5499 35.2737 13.4792 35.0542C13.4711 35.0306 13.4578 35.0011 13.4675 34.9878C13.5241 34.9046 13.6126 34.8411 13.6775 34.7623C13.7408 34.6827 13.785 34.5898 13.7563 34.4565C13.7548 34.4484 13.7901 34.455 13.8071 34.4528C14.0267 34.4256 13.9501 34.2406 13.9626 34.0969C13.9758 33.968 14.2309 33.9657 14.2427 33.7918C14.2581 33.5582 14.359 33.3512 14.5292 33.1942C14.6435 33.0866 14.6082 32.9467 14.6141 32.8059C14.6162 32.6865 14.9618 32.6983 14.855 32.4956C14.8468 32.4809 14.8491 32.467 14.8373 32.4529C14.7628 32.3645 14.7916 32.3276 14.8904 32.3026C15.0561 32.2606 15.0422 32.1515 15.0156 32.0344L14.936 31.6166C14.9014 31.6092 14.8645 31.6026 14.8307 31.593C14.7099 31.559 14.8742 31.2356 14.6486 31.2562C14.6325 31.2577 14.6162 31.2577 14.6052 31.2525C14.4128 31.1642 14.4784 30.8259 14.1528 30.865C14.1417 30.8664 14.1653 30.8156 14.1689 30.792C14.2094 30.4737 13.704 30.6373 13.7968 30.2666C13.8094 30.2172 13.6716 30.2519 13.6355 30.2172C13.4859 30.075 13.3002 29.9593 13.2235 29.7574C13.1697 29.6159 13.0739 29.5592 12.917 29.5238C12.7888 29.4951 12.9611 29.1657 12.7364 29.1849C12.7121 29.187 12.6834 29.1915 12.6716 29.1797C12.5316 29.0412 12.5057 28.7943 12.239 28.7759C12.2265 28.7752 12.2522 28.7257 12.2537 28.7037C12.2729 28.4111 11.2708 27.997 11.3591 27.6359C11.3717 27.5858 11.2375 27.6168 11.2014 27.5814C11.0983 27.4804 10.9775 27.3913 10.8868 27.28L10.5258 26.8379L10.256 27.4038C10.228 27.462 10.1934 27.5173 10.1462 27.5659C10.0423 27.6728 10.0858 27.8032 10.0836 27.9387C10.0814 28.0552 9.73205 28.039 9.85805 28.2335C9.94356 28.3677 9.80729 28.375 9.76448 28.4392C9.70184 28.5312 9.65251 28.63 9.60605 28.7316C9.55743 28.8311 9.51025 28.9321 9.4594 29.0301C9.41892 29.1045 9.40266 29.1886 9.34082 29.2578C9.19784 29.4229 9.10053 29.6188 8.99964 29.8097C8.95764 29.8923 8.92149 29.9711 8.85665 30.0426C8.78295 30.1193 8.72106 30.2047 8.66432 30.2939C8.60757 30.383 8.55378 30.4751 8.49188 30.5599C8.43588 30.638 8.38946 30.7198 8.32313 30.7935C8.1846 30.9452 8.06301 31.1125 7.93848 31.2768C7.8751 31.3565 7.81836 31.4368 7.74172 31.509C7.70562 31.5436 7.62456 31.6342 7.51623 31.7477C7.40864 31.862 7.27968 32.0056 7.14336 32.142C7.07631 32.2112 7.00925 32.2805 6.94587 32.3468C6.88029 32.4116 6.81839 32.4729 6.76239 32.5281C6.65185 32.6401 6.5671 32.7263 6.53173 32.7617C6.49416 32.8014 6.3453 32.9392 6.19203 33.0711C6.03507 33.2009 5.88179 33.3254 5.83316 33.3615C5.72778 33.4396 5.63051 33.5347 5.54061 33.6327C5.45071 33.7307 5.36744 33.8302 5.27753 33.926L6.16624 34.1131C6.17802 34.1087 6.21045 34.1117 6.19718 34.0992C6.16181 34.0645 6.17729 34.0129 6.31878 34.074Z" fill="#1B1918"/>
<path d="M13.9576 43.3819C14.06 43.2264 13.9774 42.7629 13.7622 42.3282C13.6539 42.1093 13.5161 41.9162 13.4034 41.7563C13.3496 41.6738 13.2959 41.6045 13.2619 41.5353C13.2244 41.4697 13.2015 41.4078 13.2001 41.3503C13.1956 41.2876 13.0342 41.298 12.9731 41.2515C12.8433 41.1477 12.6945 41.0688 12.5516 40.9885C12.4056 40.9126 12.2642 40.8352 12.1271 40.7416C11.934 40.6112 11.7358 40.6488 11.5383 40.6694C11.4956 40.6746 11.455 40.6569 11.4123 40.6289C11.3696 40.6038 11.3253 40.5685 11.279 40.539C11.1861 40.4808 11.0785 40.444 10.979 40.5426C10.912 40.6082 10.8559 40.6171 10.7978 40.6046C10.741 40.595 10.6827 40.5677 10.6223 40.5685C10.2716 40.5795 9.93407 40.6937 9.618 40.8242C9.6121 40.8264 9.6062 40.8301 9.60031 40.8322C9.57815 40.738 9.55384 40.6436 9.52658 40.5508C9.49048 40.424 9.45214 40.309 9.4374 40.1735C9.40496 39.8758 9.30184 39.5876 9.2156 39.2995C9.17727 39.1676 9.12642 39.043 9.09479 38.9045C9.02401 38.6179 8.91422 38.3379 8.79706 38.0608C8.7359 37.9237 8.67253 37.7948 8.61357 37.6489C8.60031 37.6142 8.57599 37.5553 8.5362 37.4787C8.49788 37.4027 8.44925 37.3048 8.39324 37.2104C8.2827 37.0136 8.14123 36.7793 7.99605 36.548C7.70645 36.0859 7.3999 35.6401 7.31368 35.5288C7.22084 35.4058 6.67259 34.5922 6.58932 34.4669C6.44562 34.243 6.25256 34.0572 6.14054 33.8031C6.13539 33.7913 6.12876 33.7809 6.12065 33.772L6.1177 33.7684L6.10444 33.7514L6.08676 33.7308C6.06243 33.7028 6.03296 33.6763 6.00127 33.6535C5.93716 33.6063 5.862 33.5768 5.79789 33.5635C5.76178 33.5945 5.72789 33.604 5.68588 33.6608C5.57314 33.8156 5.49503 33.9032 5.40955 33.8428C5.34249 33.7964 5.25995 33.8812 5.18184 33.982C5.103 34.083 5.0293 34.1988 4.96888 34.2127C4.82223 34.2459 4.69402 34.2517 4.52601 34.4308C4.41474 34.5502 4.29904 34.5878 4.1804 34.6423C4.0625 34.6969 3.94165 34.7691 3.83995 34.9563C3.8348 34.9665 3.81564 34.9438 3.80238 34.9379C3.62773 34.8664 3.50245 35.0866 3.36392 35.2702C3.3057 35.3468 3.22317 35.3232 3.13843 35.3188C3.05369 35.3136 2.96525 35.3284 2.90999 35.4765C2.83704 35.674 2.72208 35.6232 2.62113 35.6836C2.34774 35.8472 2.0633 36.0107 1.81422 36.2325C1.71179 36.324 1.61084 36.3726 1.50178 36.4359C1.23134 36.5944 0.960898 36.7712 0.716986 36.9754C0.618241 37.0586 0.535708 37.1367 0.414121 37.195C0.37875 37.2119 0.343379 37.2303 0.308745 37.2495C0.304323 37.2502 0.241687 37.2908 0.203368 37.3283C0.161365 37.3674 0.125257 37.4124 0.0950442 37.461C-0.0280175 37.6562 -0.0317019 37.9186 0.0847278 38.122L0.107572 38.1588L0.119362 38.1765L0.12452 38.1838L0.141469 38.2067L0.175366 38.2524L0.244635 38.3431C0.290322 38.4035 0.33601 38.4639 0.381697 38.5243C0.456861 38.626 0.542341 38.7093 0.600555 38.8323C0.663192 38.9658 0.777411 39.1286 0.896789 39.2892C0.956474 39.3688 1.0169 39.4491 1.0729 39.5243L1.08617 39.542C1.09649 39.556 1.10754 39.5692 1.11786 39.5825C1.1407 39.6083 1.16428 39.6326 1.19007 39.6547C1.24165 39.699 1.29913 39.7335 1.35735 39.7587C1.47525 39.8095 1.59757 39.8212 1.70737 39.8073C1.7317 39.8043 1.7759 39.7977 1.83338 39.7771C1.89086 39.7571 1.96381 39.7225 2.03382 39.6636C2.08172 39.623 2.14435 39.5692 2.21805 39.5074C2.36174 39.385 2.54523 39.2287 2.72871 39.0725C2.82083 38.9944 2.9122 38.9163 2.99916 38.8426C3.04263 38.8058 3.08537 38.7697 3.12517 38.7358C3.14506 38.7188 3.16496 38.7027 3.18412 38.6864C3.1878 38.6857 3.19001 38.6827 3.19222 38.6805C3.20106 38.6754 3.20548 38.6746 3.21138 38.6768C3.21433 38.6754 3.21654 38.6798 3.21875 38.6784C3.22096 38.6798 3.22244 38.6813 3.22317 38.682C3.2357 38.6989 3.24012 38.7056 3.2438 38.71C3.24675 38.71 3.24528 38.7129 3.24896 38.7152C3.24896 38.7174 3.2497 38.7188 3.25118 38.7211C3.25191 38.7225 3.25191 38.7204 3.25265 38.724L3.25486 38.738L3.25928 38.766C3.27107 38.8405 3.28212 38.9149 3.29392 38.9885C3.31676 39.1337 3.34476 39.2708 3.35876 39.4248C3.36908 39.5699 3.3956 39.7151 3.43024 39.8581C3.47151 40.0003 3.5172 40.1418 3.5533 40.2847C3.59309 40.4351 3.65573 40.5759 3.69258 40.7328C3.70142 40.7675 3.711 40.802 3.72427 40.8352C3.73826 40.8684 3.753 40.9015 3.76921 40.9339C3.80163 40.9988 3.83405 41.0637 3.86648 41.1285C3.92617 41.2604 3.99028 41.3893 4.00133 41.5463C4.00428 41.5832 4.07944 41.5949 4.10302 41.6281C4.18998 41.749 4.24009 41.8905 4.29831 42.0297C4.35873 42.1668 4.44495 42.2928 4.59159 42.3694C4.59601 42.3717 4.58717 42.3886 4.58569 42.3981C4.56874 42.5249 4.61664 42.6023 4.68739 42.6605C4.75887 42.718 4.85392 42.7563 4.95046 42.799C5.02783 42.8352 5.0271 42.9427 5.04331 43.0481C5.05804 43.1535 5.09784 43.2507 5.23195 43.2611C5.26143 43.2633 5.2968 43.2618 5.31228 43.278C5.35943 43.3311 5.40439 43.3864 5.44934 43.4423C5.49356 43.4991 5.53776 43.5566 5.58566 43.6104C5.68367 43.7151 5.80305 43.7975 5.96885 43.8116C5.97916 43.8123 5.97253 43.8499 5.97622 43.8683C5.99907 43.9943 6.07128 44.0511 6.15824 44.082C6.24593 44.1122 6.3513 44.1137 6.44341 44.141C6.52594 44.1667 6.57531 44.2463 6.63501 44.3274C6.69396 44.4084 6.76102 44.4939 6.87745 44.5116C7.1862 44.5691 7.47285 44.7003 7.72414 44.8844C7.89584 45.0097 8.07269 44.9781 8.25986 44.9802C8.34018 44.9802 8.3984 45.0701 8.47136 45.1416C8.54283 45.2146 8.62758 45.2735 8.74474 45.2109C8.76169 45.202 8.78085 45.2028 8.79632 45.1895C8.88991 45.107 8.94743 45.1298 9.01374 45.2286C9.16038 45.4401 9.35787 45.3252 9.55384 45.2676C9.59441 45.2558 9.63274 45.2699 9.67394 45.2927C9.69387 45.3045 9.71523 45.3193 9.7381 45.3347C9.74909 45.3421 9.75874 45.3502 9.78305 45.3583C9.80074 45.3657 9.80584 45.3723 9.81763 45.3797C9.9002 45.4342 9.98858 45.4748 10.0844 45.3848C10.0984 45.3716 10.1139 45.3605 10.1286 45.3561C10.3946 45.2758 10.6659 45.555 10.9311 45.2898C10.9399 45.2809 10.9672 45.3325 10.9878 45.3509C11.2627 45.5978 11.573 45.1173 11.8515 45.4371C11.8883 45.4799 11.9827 45.3554 12.0504 45.3531C12.3298 45.3414 12.6156 45.2839 12.8861 45.3657C12.9332 45.3797 12.9782 45.3885 13.021 45.3922L13.0534 45.3936H13.0696L13.0976 45.3929C13.1514 45.3915 13.2037 45.3811 13.2538 45.3657C13.455 45.303 13.6112 45.1306 13.6496 44.925C13.6539 44.9044 13.6576 44.8837 13.6628 44.8638C13.6643 44.8528 13.6672 44.844 13.6709 44.8344C13.679 44.8152 13.6916 44.7975 13.707 44.7798C13.7386 44.7452 13.7799 44.7113 13.8183 44.6737C13.8964 44.6 13.962 44.5108 13.8949 44.3915C13.8809 44.3657 13.8618 44.3369 13.8655 44.3141C13.8868 44.1712 13.9436 44.0318 13.9701 43.8852C13.9958 43.7401 13.9958 43.5875 13.9008 43.4431C13.8898 43.4343 13.942 43.4055 13.9576 43.3819ZM9.31211 40.9686C9.32471 40.9627 9.33866 40.9582 9.35197 40.9546C9.33722 40.962 9.32177 40.9686 9.3055 40.9752C9.29889 40.9782 9.28709 40.9834 9.28414 40.9834C9.29371 40.9775 9.30255 40.973 9.31211 40.9686Z" fill="#1B1918"/>
<path d="M41.2934 35.8531C41.2043 35.8007 41.1762 35.7455 41.1578 35.6813C41.1401 35.618 41.1335 35.5465 41.0952 35.4861C41.0679 35.4426 41.0377 35.4014 41.0039 35.3623C40.9876 35.3424 40.9699 35.3233 40.9515 35.3056L40.9242 35.2782L40.9006 35.2554C40.8484 35.2068 40.7946 35.1596 40.7408 35.1132C40.6317 35.0203 40.5204 34.9304 40.4128 34.8361C40.3008 34.7433 40.1785 34.6777 40.048 34.5951C39.8941 34.4942 39.7128 34.4279 39.5271 34.3999C39.3407 34.3733 39.1498 34.3851 38.97 34.4271C38.8145 34.4625 38.6811 34.5185 38.5278 34.5738C38.3576 34.6335 38.2021 34.7381 38.0732 34.8663L38.0245 34.9135L37.9914 34.9488L37.9258 35.0196C37.8808 35.0661 37.8374 35.1124 37.7902 35.1567C37.7062 35.2377 37.6281 35.3203 37.5308 35.3896C37.3297 35.5333 37.1365 35.6879 36.934 35.8229C36.8838 35.8567 36.8352 35.8899 36.7844 35.9201C36.7342 35.9518 36.6812 35.9791 36.6251 36.0019C36.5713 36.0255 36.4439 36.0844 36.2766 36.1523C36.1093 36.2179 35.9008 36.2842 35.6908 36.3254C35.2692 36.4153 34.8478 36.3645 34.7394 36.3519C34.7092 36.3505 34.64 36.335 34.5508 36.3166C34.5066 36.304 34.4579 36.2901 34.4064 36.2753C34.3555 36.2599 34.3024 36.2377 34.2495 36.2193C34.0386 36.136 33.8382 36.0233 33.7881 35.9864C33.6312 35.8877 33.4587 35.8 33.3202 35.6607L33.0402 36.0107L32.8375 35.6106C32.7307 35.59 32.6452 35.6327 32.5958 35.755C32.5435 35.8847 32.4882 35.9548 32.3357 35.8906C32.0991 35.7904 32.1073 36.1655 31.9613 36.1773C31.7859 36.1913 31.6312 36.1832 31.5044 36.3254C31.335 36.5148 30.9945 36.4102 30.8811 36.7204C30.8781 36.7285 30.8479 36.7064 30.8309 36.7005C30.6055 36.6187 30.5362 36.8 30.4257 36.9474C30.3328 37.0712 30.0321 36.828 29.9725 37.0793C29.9327 37.2466 29.7978 37.1883 29.702 37.2296C29.4397 37.3431 29.1708 37.4529 28.9379 37.6194C28.8421 37.6887 28.7441 37.7189 28.6409 37.761C28.5436 37.8007 28.4471 37.8427 28.3513 37.8877L27.9578 38.0734L28.1582 38.4883C28.2342 38.6445 28.3174 38.797 28.4117 38.9421C28.4736 39.0365 28.5325 39.1161 28.5665 39.2303C28.6439 39.4971 28.7964 39.7351 28.9231 39.9805C28.9754 40.0836 29.0418 40.1706 29.0734 40.2915C29.1073 40.4226 29.1833 40.5877 29.2643 40.7513C29.3431 40.9156 29.4294 41.0777 29.478 41.2038C29.4898 41.231 29.5384 41.346 29.6062 41.5037C29.6711 41.6621 29.7588 41.864 29.8361 42.0674C29.999 42.4734 30.1338 42.8854 30.1456 42.9458C30.1589 43.0084 30.1758 43.0704 30.1928 43.1322C30.2091 43.1941 30.2267 43.2553 30.2459 43.3158L30.304 43.4985L30.3535 43.6813C30.3682 43.7409 30.3888 43.7991 30.4021 43.8574C30.4154 43.9156 30.4257 43.976 30.4279 44.0394C30.4293 44.0696 30.4316 44.0991 30.4345 44.1285L30.4375 44.1507L30.4389 44.1618L30.4426 44.1845C30.4485 44.2163 30.4544 44.2487 30.464 44.2803C30.5001 44.4079 30.5708 44.528 30.6644 44.6238C30.8508 44.8169 31.1242 44.9127 31.3918 44.8839C31.4617 44.8765 31.5303 44.8596 31.5951 44.836C31.6276 44.8242 31.6578 44.8087 31.6887 44.794L31.7093 44.7836L31.7204 44.7777L31.7425 44.7652C31.8022 44.7321 31.8626 44.7004 31.9275 44.6724C32.1581 44.5743 32.3298 44.3584 32.6069 44.3393C32.6393 44.3371 32.643 44.2634 32.6703 44.2406C32.7211 44.1993 32.7786 44.1698 32.8383 44.1455C32.8559 44.1396 32.9281 44.1072 32.9797 44.0726C33.035 44.0379 33.0852 43.9959 33.1315 43.948C33.223 43.8529 33.2877 43.7306 33.3113 43.6009C33.3356 43.472 33.3143 43.3349 33.2473 43.2266C33.2428 43.22 33.2561 43.2023 33.2598 43.1882C33.2693 43.1448 33.273 43.0998 33.2679 43.0578C33.2657 43.0372 33.2612 43.0143 33.2575 42.9967C33.2568 42.9856 33.2553 42.9753 33.2532 42.9657C33.2443 42.9259 33.2237 42.8934 33.1964 42.8648C33.1411 42.8073 33.0564 42.7645 32.9805 42.7107C32.8552 42.623 33.0961 42.3261 32.8559 42.2539C32.8301 42.2465 32.7963 42.2398 32.7874 42.2222C32.744 42.1345 32.7204 42.0357 32.6902 41.9407C32.8294 41.937 32.9658 42.1308 33.1508 42.0711C33.4196 41.982 33.7063 41.9952 33.9739 42.0755C34.1558 42.1323 34.2944 42.0424 34.4558 41.987C34.5921 41.9362 34.7609 42.2501 34.9332 42.0667C34.9458 42.0534 34.962 42.049 34.9723 42.032C35.0335 41.9266 35.0895 41.9362 35.1698 42.0151C35.3452 42.1809 35.4882 42.0291 35.6481 41.9318C35.7136 41.8928 35.794 41.9547 35.8794 42.0011C35.9642 42.0475 36.0555 42.0755 36.1336 41.9761C36.1447 41.9613 36.158 41.9488 36.1713 41.9421C36.2914 41.8883 36.4255 41.9148 36.5581 41.9215C36.69 41.9296 36.8212 41.903 36.917 41.7505C36.9236 41.7402 36.9604 41.7859 36.984 41.7999C37.1417 41.8921 37.2707 41.7984 37.3953 41.7174C37.4579 41.6731 37.5197 41.6311 37.5891 41.6149C37.659 41.5972 37.7305 41.6106 37.8352 41.6547C37.8624 41.6673 37.8904 41.6349 37.9185 41.5965C37.9471 41.5582 37.9723 41.5096 38.0054 41.4933C38.2773 41.3548 38.4858 41.1433 38.7489 41.0291C38.9332 40.9458 39.0238 40.8176 39.0798 40.626C39.1034 40.5487 39.2058 40.539 39.3023 40.5118C39.4004 40.4868 39.4902 40.4432 39.4807 40.315C39.4785 40.2877 39.4733 40.2554 39.4858 40.2377C39.6383 40.0298 39.9139 39.8943 39.897 39.5796C39.8962 39.5649 39.9538 39.5729 39.9781 39.5641C40.1387 39.5089 40.2912 39.1419 40.4224 38.7793C40.558 38.4168 40.6788 38.0572 40.8741 37.9989C40.9286 37.9827 40.8535 37.8545 40.8771 37.7941C40.9736 37.5406 41.0237 37.265 41.191 37.0476C41.2484 36.9717 41.2698 36.8936 41.2757 36.8125L41.2794 36.747C41.2816 36.7196 41.2824 36.6917 41.2831 36.6644C41.2816 36.6091 41.2794 36.5546 41.2735 36.4985C41.2647 36.4057 41.3406 36.3107 41.3811 36.1913C41.4209 36.0756 41.4246 35.9334 41.2934 35.8531Z" fill="#1B1918"/>
<path d="M24.5682 34.4679C24.5689 34.5364 24.6014 34.5858 24.6441 34.6167C24.6713 34.6351 24.7023 34.6322 24.7399 34.6292C24.8128 34.6212 24.8961 34.599 24.9131 34.6492C24.9528 34.7686 24.9683 34.885 25.1024 34.91C25.283 34.9432 25.2395 35.2409 25.5099 35.1827C25.5173 35.1812 25.5026 35.2129 25.4996 35.2283C25.4583 35.4303 25.6154 35.4001 25.7516 35.417C25.8666 35.4317 25.6912 35.7574 25.9086 35.6941C26.0538 35.6528 26.0177 35.7766 26.0597 35.8304C26.1791 35.9771 26.291 36.1326 26.4495 36.2401C26.5151 36.2843 26.5461 36.3462 26.5881 36.4074C26.6941 36.5585 26.8076 36.7051 26.9484 36.8259C27.0044 36.8761 27.0596 36.9151 27.0921 36.9896C27.1679 37.162 27.3072 37.2894 27.4251 37.4309C27.4738 37.4906 27.5349 37.5341 27.5659 37.6129C27.6307 37.7847 27.8518 38.0057 27.9461 38.1597C27.9616 38.1826 28.0419 38.3027 28.1841 38.5157L28.4236 38.873L28.7773 38.6476C29.0124 38.498 29.4442 38.2378 29.4966 38.2179C29.6624 38.1523 29.8061 38.0433 29.9593 37.9541C30.0345 37.9099 30.0986 37.8547 30.1877 37.8274C30.3543 37.7758 30.4891 37.6594 30.6417 37.5784C30.722 37.5355 30.7949 37.484 30.8841 37.4515C31.0411 37.3934 31.1406 37.218 31.3425 37.2445C31.3661 37.2474 31.3594 37.1796 31.3771 37.1627C31.5075 37.0389 31.7382 37.1207 31.8178 36.896C31.8193 36.8922 31.8311 36.9056 31.8377 36.9092C32.0101 37.019 32.0359 36.8591 32.0993 36.7338C32.1523 36.6292 32.3844 36.9129 32.4161 36.7014C32.4198 36.6786 32.422 36.6484 32.4338 36.6432C32.4715 36.6284 32.5119 36.6218 32.5532 36.6159C32.5945 36.6123 32.6357 36.61 32.6748 36.6019C32.7529 36.5864 32.8222 36.5474 32.8642 36.4332C32.8664 36.4266 32.887 36.4553 32.8988 36.4656C33.0359 36.5842 33.0735 36.4538 33.1405 36.3617L33.4692 35.9085L33.3734 35.8488C33.3601 35.8407 33.3476 35.8319 33.3358 35.8223C33.2444 35.7515 33.3947 35.5563 33.2665 35.4716C33.0933 35.3588 33.0042 35.1871 32.9828 34.9903C32.9696 34.8562 32.8479 34.8187 32.7448 34.7516C32.6579 34.6955 32.8738 34.4421 32.663 34.4288C32.6475 34.4281 32.6387 34.42 32.621 34.4229C32.5097 34.4384 32.5009 34.4001 32.5444 34.3146C32.6387 34.1267 32.4604 34.1178 32.3337 34.0648C32.2297 34.0228 32.4567 33.7494 32.2407 33.7464C32.2253 33.7464 32.2105 33.7443 32.201 33.7391C32.1214 33.6912 32.1162 33.5918 32.0911 33.5055C32.0647 33.4207 32.0189 33.3478 31.862 33.3544C31.8516 33.3551 31.8841 33.311 31.8922 33.2896C31.9438 33.1474 31.8429 33.1039 31.7499 33.056C31.6571 33.0081 31.5687 32.958 31.6461 32.7921C31.6668 32.748 31.5311 32.773 31.5038 32.7399C31.3896 32.6035 31.2378 32.4922 31.1958 32.3081C31.1671 32.1783 31.0853 32.1238 30.9445 32.0899C30.8871 32.0759 30.9107 31.9941 30.9217 31.9168C30.932 31.8409 30.9291 31.7694 30.8222 31.779C30.7994 31.7812 30.7713 31.7856 30.7618 31.7753C30.6476 31.6507 30.6528 31.4223 30.4059 31.4112C30.3941 31.4105 30.4244 31.3648 30.428 31.3442C30.4516 31.2101 30.2349 31.0568 30.0301 30.8976C29.9291 30.8165 29.8245 30.7391 29.7537 30.6589C29.683 30.5786 29.6454 30.496 29.6705 30.4098C29.6844 30.3619 29.5577 30.4024 29.526 30.3729C29.3949 30.2462 29.2217 30.1578 29.1502 29.9772C29.1001 29.8512 28.9734 29.8475 28.8577 29.81C28.8083 29.7938 28.8193 29.7068 28.815 29.6309C28.8091 29.5572 28.7877 29.4946 28.6808 29.5292C28.5349 29.5764 28.5718 29.4518 28.5268 29.3988C28.4273 29.2794 28.3035 29.1851 28.1834 29.0885L27.8046 28.7842L27.5549 29.1718C27.5306 29.2094 27.5062 29.247 27.4804 29.2838C27.4362 29.348 27.4119 29.4209 27.35 29.4791C27.2033 29.6184 27.0965 29.7907 27.0007 29.9625C26.9594 30.0369 26.9255 30.1055 26.8607 30.1703C26.7184 30.3125 26.6308 30.4864 26.5239 30.6478C26.4753 30.7215 26.4362 30.7959 26.3765 30.8681C26.2513 31.017 26.1532 31.1791 26.0531 31.3375C26.0029 31.4164 25.9609 31.493 25.896 31.5697C25.77 31.7156 25.087 32.7501 25.0089 32.902C24.9646 32.986 24.6057 33.5195 24.5469 33.602C24.4422 33.748 24.3987 33.8842 24.2462 34.039C24.2321 34.053 24.227 34.0655 24.2263 34.0773L25.1253 33.9454C25.2255 33.8909 25.2631 33.8438 25.2159 33.8032C25.1658 33.7605 25.1599 33.7199 25.328 33.6522C25.5888 33.5505 25.3147 33.4944 25.423 33.4178C25.5527 33.3287 25.6824 33.2586 25.6824 33.1687C25.6817 33.1083 25.7686 33.0434 25.8386 32.9808C25.9086 32.9174 25.9624 32.8556 25.8968 32.787C25.8931 32.7833 25.9329 32.776 25.9514 32.7708C26.1893 32.6972 26.1142 32.6175 26.0965 32.5224C26.0817 32.4407 26.493 32.4039 26.3611 32.2933C26.2734 32.2167 26.4215 32.1842 26.4672 32.1327C26.5932 31.989 26.7259 31.8475 26.7899 31.692C26.8165 31.6271 26.871 31.5799 26.9218 31.5247C27.0478 31.3876 27.1599 31.2469 27.2365 31.0936C27.2675 31.031 27.2888 30.9735 27.3522 30.9205C27.5018 30.7981 27.5769 30.6397 27.6734 30.4908C27.714 30.429 27.7339 30.3619 27.8003 30.3081C27.9431 30.1939 28.0707 29.9242 28.1783 29.7841C28.1834 29.7768 28.1967 29.7576 28.2623 29.6663L27.6323 29.7496C27.6986 29.807 27.8938 29.9757 28.0802 30.1364C28.1267 30.177 28.1724 30.2167 28.2151 30.2536C28.2571 30.2919 28.2947 30.3294 28.3286 30.3619C28.3957 30.4275 28.4436 30.4754 28.4546 30.4901C28.56 30.6308 28.7058 30.7341 28.8289 30.8578C28.8894 30.9189 28.9571 30.9676 29.005 31.0457C29.0942 31.1938 29.2431 31.2896 29.3551 31.4194C29.414 31.4871 29.4803 31.5468 29.5327 31.6242C29.6233 31.7635 29.8222 31.8143 29.8392 32.0192C29.8414 32.0428 29.9055 32.0214 29.9255 32.0354C30.0721 32.1356 30.0492 32.3766 30.2865 32.4031C30.2902 32.4039 30.2807 32.4178 30.2777 32.4252C30.2099 32.619 30.372 32.6087 30.5084 32.6425C30.621 32.6706 30.4044 32.9639 30.6196 32.9447C30.6432 32.9425 30.6734 32.9374 30.6807 32.9476C30.7751 33.0818 30.7529 33.2999 31.0006 33.3213C31.008 33.322 30.9865 33.35 30.9806 33.3648C30.9041 33.5541 31.0927 33.5364 31.1996 33.5939C31.2968 33.6455 31.1708 33.8547 31.3042 33.9182C31.4854 34.0036 31.5835 34.1672 31.613 34.3552C31.6328 34.4826 31.7522 34.5128 31.8546 34.574C31.9416 34.6271 31.7279 34.8783 31.9372 34.8857C31.9526 34.8864 31.9608 34.8938 31.9784 34.8916C32.0883 34.8753 32.0963 34.9137 32.0507 34.9977C31.9504 35.1804 32.1265 35.1878 32.2504 35.2439C32.3513 35.2902 32.1052 35.546 32.3181 35.5577C32.3337 35.5585 32.3483 35.5615 32.3564 35.5674C32.5053 35.672 32.338 35.9476 32.6454 35.966C32.6556 35.9667 32.6173 36.0058 32.6063 36.025C32.5569 36.1097 32.5834 36.1642 32.6247 36.1989L32.9135 35.5629C32.7993 35.6484 32.7219 35.8223 32.5326 35.6632C32.495 35.6321 32.4802 35.7707 32.4404 35.7892C32.2717 35.8643 32.1273 35.9903 31.9349 35.9837C31.7994 35.98 31.7286 36.05 31.6623 36.1797C31.6092 36.2843 31.3617 36.0153 31.3307 36.2284C31.3277 36.2512 31.3248 36.2792 31.313 36.2858C31.1649 36.3669 30.9445 36.3116 30.8797 36.5511C30.8768 36.5621 30.8385 36.5231 30.8192 36.5142C30.6932 36.4582 30.4958 36.6314 30.2946 36.7935C30.0942 36.9564 29.8908 37.1112 29.739 37.0183C29.6962 36.9925 29.7044 37.1251 29.6683 37.148C29.5172 37.2467 29.3845 37.3845 29.1937 37.4029C29.0603 37.4154 29.0234 37.5364 28.9564 37.6372C28.8997 37.7228 28.6359 37.5017 28.6403 37.725C28.6432 37.8767 28.5349 37.8052 28.4715 37.8311C28.4193 37.8524 28.3706 37.8775 28.3205 37.9069L28.9174 38.0404C28.8422 37.921 28.7537 37.809 28.6734 37.6926C28.63 37.6306 28.571 37.5834 28.5394 37.5076C28.4627 37.3285 28.3404 37.1745 28.21 37.033C28.1539 36.9719 28.0994 36.9188 28.0611 36.8407C27.9749 36.672 27.8386 36.5371 27.7163 36.3941C27.6609 36.3285 27.6012 36.2704 27.5511 36.1974C27.4487 36.0448 27.3205 35.9107 27.1938 35.7781C27.1318 35.7111 27.0662 35.6528 27.0117 35.5769C26.9602 35.504 26.7302 35.2468 26.4856 35.0044C26.2431 34.7597 25.9852 34.5305 25.913 34.4782C25.8372 34.4163 25.37 34.0022 25.2985 33.9373C25.2852 33.9248 25.2712 33.9123 25.2579 33.9005L25.2476 33.8916C25.2461 33.8909 25.2461 33.8909 25.2454 33.8901C25.244 33.8894 25.2425 33.8894 25.241 33.8894C25.2351 33.8894 25.227 33.8938 25.2159 33.9005C25.1946 33.9137 25.1599 33.9321 25.126 33.9439L24.227 34.0758C24.258 34.1105 24.2697 34.1539 24.3294 34.1834C24.4105 34.2225 24.4739 34.249 24.5137 34.2873C24.5505 34.3309 24.5675 34.3795 24.5682 34.4679Z" fill="#1B1918"/>
<path d="M34.5876 16.8891C34.5765 16.7903 34.5883 16.6894 34.5515 16.5877C34.5021 16.4499 34.4667 16.3283 34.4578 16.2053C34.4483 16.0821 34.4578 15.9584 34.5109 15.8124C34.5515 15.699 34.5588 15.5884 34.547 15.4808C34.5367 15.3733 34.4969 15.2708 34.4586 15.1706C34.4196 15.0712 34.3761 14.9754 34.3429 14.8817C34.3105 14.7882 34.2884 14.6976 34.2847 14.6084C34.2796 14.3925 34.281 14.1928 34.2633 13.9901C34.2368 13.7897 34.1918 13.5871 34.1049 13.3667C34.0452 13.2208 33.9958 13.069 33.9597 12.9113C33.9405 12.8325 33.9236 12.7529 33.9074 12.6733C33.8912 12.593 33.8683 12.5141 33.8485 12.4346C33.8065 12.2753 33.76 12.1177 33.6981 11.9659C33.6296 11.817 33.5448 11.6755 33.4343 11.548C33.4225 11.5348 33.4372 11.481 33.4372 11.4449C33.4402 11.327 33.4181 11.2209 33.3857 11.1221C33.3532 11.0226 33.3083 10.9305 33.2567 10.8421C33.1573 10.6623 33.0113 10.5061 32.8772 10.3314C32.8205 10.2585 32.7866 10.17 32.7586 10.0743C32.7276 9.97993 32.7055 9.8775 32.6783 9.77434C32.651 9.67117 32.6179 9.56727 32.5677 9.4722C32.5183 9.37641 32.4425 9.29387 32.3422 9.22682C32.2074 9.13839 32.1315 9.02786 32.0704 8.90922C32.0048 8.79353 31.9524 8.66973 31.875 8.5555C31.4491 7.93357 30.9745 7.32268 30.4138 6.82306C30.301 6.71695 30.1927 6.62189 30.0939 6.5202C29.9923 6.42146 29.8987 6.31534 29.7889 6.2166C29.2583 5.70519 28.6592 5.24832 28.0284 4.86955C27.8995 4.79365 27.7779 4.72438 27.6571 4.65069C27.5333 4.58142 27.4094 4.50994 27.2798 4.42299C27.2038 4.37214 27.1272 4.3213 27.0484 4.2734C26.9688 4.22771 26.8877 4.1835 26.8067 4.13929C26.7248 4.09581 26.6431 4.05307 26.5613 4.00959C26.52 3.98822 26.4787 3.96685 26.4374 3.94622L26.31 3.88947C26.1398 3.81431 25.9695 3.73988 25.7986 3.66767C25.6247 3.60209 25.4508 3.53724 25.2776 3.47166C25.1339 3.41344 24.9887 3.37733 24.845 3.33017C24.6999 3.28669 24.5562 3.23143 24.4014 3.17616C24.2341 3.11573 24.0323 3.05163 23.8134 2.98751C23.5915 2.93372 23.3529 2.87993 23.1134 2.82835C22.8716 2.78855 22.6292 2.74876 22.4029 2.71191C22.1752 2.68612 21.963 2.66107 21.7839 2.63601C21.7641 2.6338 21.728 2.62938 21.6786 2.62275C21.6285 2.61907 21.5651 2.61391 21.4899 2.60801C21.3389 2.5977 21.1399 2.57927 20.9093 2.56748C20.6786 2.5638 20.4155 2.55127 20.137 2.55348C19.9978 2.55717 19.8541 2.56085 19.7089 2.56527C19.6359 2.56748 19.5629 2.56896 19.4893 2.57117C19.4163 2.57706 19.3427 2.58222 19.2689 2.58812C19.1216 2.59917 18.9749 2.61096 18.8297 2.62201C18.6846 2.63307 18.5423 2.65665 18.4038 2.67286C18.2653 2.69128 18.1305 2.70602 18.0022 2.72592C17.874 2.74876 17.7524 2.77013 17.6382 2.79076C17.524 2.8114 17.4179 2.83056 17.3206 2.8475C17.2248 2.86887 17.1386 2.88877 17.0641 2.90572C16.9145 2.93962 16.8121 2.96172 16.7701 2.96983L16.6412 2.99562L16.5136 3.02804C16.4289 3.05089 16.3442 3.073 16.2594 3.09584L16.0053 3.16658C15.9205 3.19016 15.838 3.22185 15.754 3.24985C15.5874 3.30806 15.4201 3.36481 15.2551 3.42597C15.0915 3.49229 14.9279 3.55787 14.765 3.62345C14.7253 3.63966 14.6855 3.65588 14.6456 3.67135L14.53 3.72515C14.4533 3.76126 14.3767 3.79736 14.2994 3.83347C14.1446 3.90421 13.9876 3.97496 13.8232 4.04938C13.6693 4.11865 13.5145 4.19087 13.3628 4.26898C13.2139 4.35224 13.065 4.4392 12.9176 4.52689C12.7681 4.61163 12.6273 4.71185 12.4829 4.80544C12.3399 4.90124 12.194 4.99261 12.0562 5.0943C11.9088 5.19895 11.7636 5.30285 11.6192 5.41043C11.4785 5.52244 11.3355 5.63371 11.1852 5.74425C11.152 5.76856 11.1189 5.79362 11.0864 5.81941L10.9921 5.90047C10.9295 5.955 10.8683 6.011 10.8072 6.06775C10.6849 6.18049 10.5632 6.29471 10.4475 6.41556C10.3304 6.5342 10.211 6.65063 10.0858 6.76264C9.96558 6.87907 9.83958 6.99033 9.70331 7.09203C9.63914 7.14067 9.61564 7.25415 9.56104 7.33005C9.45863 7.46637 9.34666 7.59459 9.22942 7.71913C9.11307 7.8444 9.00253 7.97483 8.88901 8.10379C8.83301 8.16864 8.77774 8.23422 8.72395 8.30054C8.67311 8.36981 8.62447 8.43982 8.57879 8.51203C8.4874 8.65647 8.40193 8.80457 8.34445 8.96891C8.34076 8.97922 8.31645 8.98733 8.30171 8.99765C8.11306 9.13397 7.99147 9.30051 7.906 9.48547C7.8242 9.67338 7.77114 9.87676 7.70187 10.0853C7.65103 10.26 7.50365 10.397 7.35996 10.5547C7.28627 10.6328 7.22068 10.7183 7.17057 10.8156C7.11972 10.9121 7.0851 11.0197 7.0792 11.1427C7.07698 11.1958 7.0792 11.257 7.05709 11.3041C6.99446 11.4537 6.9274 11.6026 6.85665 11.75L6.75202 11.9718C6.72106 12.0469 6.69012 12.1228 6.66064 12.1995C6.60316 12.352 6.54716 12.506 6.51105 12.6652C6.47862 12.8251 6.45947 12.9887 6.46094 13.1552C6.46094 13.1751 6.41747 13.2068 6.39536 13.2348C6.11976 13.618 6.19197 14.0321 6.18018 14.4588C6.1765 14.556 6.15292 14.6504 6.12639 14.7476C6.10133 14.8449 6.06818 14.9437 6.03502 15.0468C6.00185 15.15 5.96869 15.2576 5.94511 15.3711C5.92154 15.4846 5.91637 15.6061 5.92374 15.7343C5.92964 15.8213 5.93405 15.9082 5.937 15.996C5.93922 16.0837 5.93995 16.172 5.94585 16.2612C5.95396 16.4389 5.95616 16.6187 5.95248 16.7977C5.94953 16.8891 5.95175 16.9716 5.94733 17.0623C5.94658 17.1514 5.94511 17.2405 5.94143 17.329C5.93553 17.5066 5.92374 17.682 5.90753 17.8552C5.88248 18.326 5.98417 18.6746 6.08734 19.0835C6.12934 19.2574 6.07776 19.4549 6.06007 19.6628C6.03944 19.8705 6.0328 20.0923 6.15587 20.3024C6.17429 20.3326 6.18534 20.3746 6.20671 20.3982C6.33861 20.5449 6.35262 20.6886 6.30767 20.8949C6.25829 21.1196 6.30177 21.3186 6.36809 21.5109C6.40272 21.6067 6.44399 21.7017 6.49042 21.7961C6.53905 21.8904 6.58916 21.9855 6.63706 22.0835C6.67538 22.1638 6.69085 22.2544 6.69602 22.351C6.70117 22.4483 6.69748 22.5514 6.70265 22.656C6.71075 22.8653 6.73802 23.0864 6.89129 23.275C6.91487 23.3016 6.93771 23.3325 6.95466 23.3657C7.10204 23.653 7.15731 23.9802 7.25974 24.2912C7.30838 24.4475 7.36143 24.6021 7.43438 24.7466C7.51175 24.8895 7.60682 25.023 7.73135 25.1387C7.7483 25.1541 7.7284 25.2381 7.73283 25.2919C7.74314 25.4724 7.8102 25.6323 7.89126 25.7871C7.93252 25.8645 7.97821 25.9396 8.02684 26.0133L8.10054 26.1239L8.18012 26.2315C8.28623 26.3752 8.39013 26.5196 8.46972 26.6751C8.54857 26.832 8.61563 26.9927 8.63257 27.182C8.64437 27.2816 8.85954 27.4135 8.95168 27.5483C9.13952 27.8283 9.33406 28.1091 9.53602 28.3803C9.63619 28.5165 9.72833 28.6573 9.82412 28.7944C9.9192 28.9315 10.0091 29.0707 10.0917 29.2137C10.2036 29.4163 10.3312 29.5748 10.4645 29.7228C10.5316 29.7966 10.6023 29.8665 10.6767 29.9358C10.7519 30.0043 10.8359 30.0685 10.9228 30.1362C11.0673 30.2446 11.1373 30.4347 11.2309 30.6226C11.3274 30.8083 11.4438 30.997 11.6627 31.1016C11.7098 31.1245 11.7644 31.1473 11.8027 31.1834C11.9177 31.2954 12.026 31.4148 12.1329 31.5363L12.2935 31.7184C12.3488 31.7774 12.4047 31.8355 12.4615 31.893C12.5749 32.008 12.6922 32.1193 12.8174 32.2202C12.9442 32.3197 13.0834 32.4044 13.2323 32.4752C13.2603 32.4884 13.2713 32.5673 13.2993 32.613C13.3863 32.7648 13.6324 32.9778 13.9523 33.2275C14.1106 33.3543 14.2978 33.4774 14.488 33.6107C14.6781 33.7455 14.8844 33.8738 15.0892 34.0043C15.9102 34.5245 16.7547 34.9924 16.9713 35.2872C17.031 35.3712 17.2838 35.3771 17.4275 35.4552C18.0406 35.7706 18.689 36.0403 19.2697 36.38C19.3699 36.4397 19.4679 36.489 19.5645 36.531C19.5888 36.5414 19.6131 36.551 19.6367 36.5612L19.6823 36.5782C19.6993 36.5841 19.7163 36.5907 19.7332 36.5952C19.801 36.6166 19.8703 36.6298 19.9388 36.6386C20.2144 36.6718 20.4848 36.6121 20.7288 36.4868C20.7574 36.4729 20.7737 36.4633 20.7951 36.4537C20.8157 36.4441 20.8371 36.436 20.8591 36.4286C20.9034 36.4139 20.9498 36.4021 20.9984 36.3918C21.0957 36.3719 21.1996 36.3594 21.3035 36.341C21.4075 36.3226 21.5135 36.3004 21.61 36.2577C21.7066 36.2142 21.7965 36.153 21.871 36.0631C21.9727 35.9408 22.0839 35.8834 22.1996 35.8428C22.3153 35.803 22.4331 35.7742 22.5504 35.7197C23.2276 35.411 23.8605 35.002 24.4906 34.6033C24.61 34.5245 24.7235 34.4427 24.8406 34.3616C24.9571 34.2806 25.0779 34.2017 25.2061 34.1185C25.3587 34.0227 25.5112 33.9232 25.6622 33.8215C25.8133 33.7198 25.9578 33.607 26.1037 33.498C26.3984 33.2813 26.6726 33.0374 26.9489 32.8023C27.1803 32.5923 27.3888 32.3971 27.6394 32.1944C27.9083 31.9667 28.1751 31.7295 28.4212 31.4716C28.545 31.3433 28.6732 31.2188 28.7926 31.0854C28.9127 30.9534 29.0336 30.8215 29.153 30.6905C29.2649 30.5732 29.3644 30.4472 29.469 30.3257C29.573 30.2026 29.6806 30.0817 29.7904 29.9572C30.0129 29.6934 30.2413 29.4304 30.4447 29.1474C30.5486 29.0073 30.654 28.8688 30.7542 28.7265C30.8523 28.5829 30.9502 28.4392 31.0482 28.2955C31.147 28.1547 31.2355 28.0103 31.3261 27.8666C31.416 27.7229 31.511 27.5808 31.6083 27.4341C31.6532 27.3633 31.7292 27.2403 31.8271 27.0774C31.8758 26.9963 31.931 26.905 31.9907 26.8055C32.0468 26.7038 32.1072 26.594 32.1705 26.4776C32.2339 26.3611 32.301 26.2374 32.371 26.1091C32.4359 25.978 32.5036 25.8424 32.5729 25.7031C32.7158 25.4268 32.8426 25.1254 32.9775 24.8284C33.5021 23.631 33.8536 22.3679 33.9221 22.0385C33.9332 21.9936 33.9523 21.9183 33.9774 21.8204C34.0024 21.7224 34.0268 21.6008 34.0585 21.4645C34.0894 21.3281 34.1241 21.1764 34.1595 21.0171C34.1897 20.8566 34.2213 20.6886 34.2523 20.5205C34.2678 20.4365 34.2839 20.3525 34.2994 20.2692C34.3141 20.186 34.3245 20.1034 34.337 20.0224C34.3606 19.861 34.3834 19.7077 34.404 19.5692C34.4431 19.2928 34.4601 19.0769 34.4734 18.9863C34.5168 18.6679 34.5198 18.3474 34.5367 18.0268C34.547 17.8662 34.5463 17.7056 34.5536 17.5435C34.5603 17.3821 34.5713 17.2192 34.589 17.0556C34.5972 16.9981 34.5935 16.9422 34.5876 16.8891ZM16.2507 17.8345C16.1681 17.6186 16.0258 17.438 15.9175 17.2354C15.8755 17.1499 15.8158 17.0792 15.7981 16.976C15.7893 16.92 15.7716 16.8573 15.7481 16.7918C15.7274 16.7247 15.7023 16.654 15.6751 16.584C15.6508 16.5125 15.6265 16.441 15.6044 16.374C15.5829 16.3069 15.5683 16.2421 15.5572 16.1876C15.5447 16.1397 15.4687 15.783 15.4481 15.419C15.443 15.3276 15.4422 15.237 15.4393 15.15C15.4415 15.0638 15.4437 14.982 15.4452 14.9105C15.4569 14.7675 15.4644 14.6636 15.4717 14.6379C15.5233 14.4279 15.5366 14.2097 15.5874 13.9989C15.5977 13.9467 15.6103 13.8965 15.6221 13.845C15.6353 13.7941 15.6478 13.7426 15.6766 13.6931C15.7745 13.5074 15.8188 13.2974 15.9102 13.1066C15.9345 13.0564 15.9581 13.0071 15.9824 12.957C16.006 12.9068 16.0325 12.8575 16.0678 12.8119C16.0981 12.7706 16.1209 12.7249 16.1423 12.6777C16.1651 12.6313 16.1872 12.5849 16.2101 12.5384C16.255 12.4448 16.3221 12.3631 16.4253 12.3122C16.4511 12.3012 16.4194 12.2392 16.4319 12.212C16.4548 12.1634 16.4879 12.1214 16.527 12.0845C16.5667 12.0484 16.6102 12.016 16.6507 11.9813C16.6906 11.9459 16.7304 11.9114 16.7606 11.8678C16.7915 11.8244 16.8114 11.7713 16.8202 11.705C16.821 11.7006 16.8372 11.7087 16.8453 11.7094C16.9551 11.7241 17.0044 11.6888 17.0347 11.6291C17.0664 11.5716 17.0767 11.4884 17.101 11.4102C17.1209 11.3454 17.2137 11.3631 17.297 11.3682C17.3803 11.3719 17.4577 11.369 17.4628 11.2548C17.4636 11.2297 17.462 11.198 17.4761 11.1884C17.5594 11.1302 17.6677 11.1096 17.7583 11.0661C17.8534 11.0285 17.93 10.9659 17.9779 10.8392C17.9809 10.831 18.0081 10.8554 18.0229 10.8627C18.2204 10.9548 18.2528 10.7625 18.3559 10.6549C18.4031 10.6092 18.4776 10.6255 18.5527 10.6387C18.6286 10.6534 18.7067 10.6675 18.7686 10.6063C18.9396 10.4486 19.1768 10.3874 19.4031 10.4324C19.4789 10.4449 19.5402 10.4287 19.599 10.3992C19.658 10.3705 19.7141 10.3248 19.7781 10.2938C19.8326 10.2666 19.899 10.3285 19.9646 10.3742C20.0309 10.4221 20.0965 10.4567 20.1658 10.3675C20.1761 10.3543 20.1894 10.3506 20.1974 10.3336C20.2498 10.2297 20.2984 10.2452 20.3566 10.3277C20.4207 10.4184 20.4804 10.4272 20.5445 10.4095C20.6086 10.3904 20.6772 10.3366 20.7494 10.3049C20.8083 10.2798 20.8614 10.3558 20.9159 10.4169C20.9712 10.4781 21.0272 10.5319 21.1134 10.4552C21.126 10.4442 21.1392 10.4346 21.1517 10.4324C21.2586 10.4118 21.3485 10.4847 21.4398 10.5341C21.5305 10.5886 21.6241 10.6137 21.7596 10.5223C21.7693 10.5157 21.7729 10.5724 21.7818 10.5945C21.8422 10.7419 21.9586 10.7286 22.0817 10.7227C22.2004 10.7227 22.3264 10.7301 22.3477 10.9232C22.3529 10.9733 22.4715 10.8944 22.5194 10.9158C22.708 11.0079 22.9306 11.075 23.0485 11.2643C23.0912 11.3277 23.1347 11.3734 23.1922 11.4021C23.2202 11.4169 23.2519 11.4272 23.2857 11.4353C23.3189 11.4449 23.3558 11.4515 23.397 11.4567C23.4634 11.4662 23.4663 11.5554 23.473 11.6417C23.4803 11.7271 23.498 11.8008 23.6108 11.7883C23.6351 11.7861 23.6638 11.7816 23.6756 11.7927C23.7117 11.8281 23.7419 11.8701 23.7692 11.9128C23.7957 11.957 23.8193 12.0035 23.8473 12.0462C23.9055 12.1295 23.9689 12.2039 24.1059 12.2267C24.1192 12.2289 24.0882 12.2753 24.0838 12.2982C24.0588 12.4448 24.2798 12.6497 24.4648 12.8988C24.509 12.9614 24.5569 13.0233 24.5937 13.0866C24.6306 13.1508 24.6645 13.2127 24.6881 13.2724C24.7301 13.394 24.7426 13.5001 24.6844 13.5753C24.6527 13.6166 24.7876 13.643 24.8067 13.6917C24.879 13.8943 24.9909 14.1006 24.9438 14.3239C24.9305 14.3998 24.946 14.4617 24.974 14.5207C25.0012 14.5796 25.047 14.6364 25.0765 14.7005C25.1029 14.755 25.0381 14.8236 24.9917 14.8899C24.9431 14.9569 24.9106 15.0218 25.0094 15.0874C25.145 15.178 25.0212 15.2465 25.0094 15.3261C24.9681 15.5568 24.9725 15.7918 24.929 16.0217C24.9158 16.1102 24.9158 16.1979 24.8782 16.287C24.7839 16.4956 24.7286 16.7166 24.6593 16.9333C24.6336 17.0276 24.6026 17.1131 24.5474 17.1978C24.4176 17.3783 24.3358 17.5876 24.2135 17.7741C24.1597 17.8595 24.1097 17.9451 24.0411 18.0232C23.8945 18.1823 23.7603 18.3526 23.6122 18.5103C23.5754 18.5493 23.5385 18.5869 23.5009 18.6245C23.4634 18.662 23.4243 18.6981 23.3786 18.7284C23.2939 18.7902 22.9815 19.0497 22.6299 19.2494C22.5865 19.2744 22.5423 19.2994 22.4995 19.3245C22.4553 19.3473 22.4118 19.3702 22.3691 19.3923C22.2844 19.4387 22.2004 19.4741 22.1259 19.5102C22.0522 19.5463 21.9829 19.5706 21.9299 19.5957C21.8761 19.6201 21.8341 19.6362 21.8105 19.6465C21.7839 19.6583 21.7206 19.6819 21.6388 19.7091C21.5548 19.7313 21.4538 19.7659 21.3499 19.7873C21.2983 19.799 21.2461 19.8101 21.1966 19.8212C21.1465 19.8293 21.0994 19.8374 21.0566 19.8448C20.9712 19.8603 20.9049 19.8669 20.8761 19.8684C20.8268 19.8721 20.7774 19.8794 20.7288 19.8882C20.6793 19.8956 20.63 19.9023 20.5806 19.9082C20.4818 19.9221 20.3801 19.9207 20.2785 19.8948C20.26 19.8905 20.2424 19.8941 20.2247 19.9015C20.1945 19.9096 20.1635 19.8941 20.1318 19.9273C20.0442 20.0165 19.9712 20.0548 19.8923 19.92C19.8319 19.816 19.7649 19.8499 19.6948 19.8934C19.6264 19.9384 19.5549 20.0003 19.5025 19.9656C19.378 19.8764 19.2881 19.7858 19.1319 19.8183C19.0258 19.844 18.9373 19.7763 18.8467 19.7276C18.7553 19.6775 18.6647 19.6392 18.5313 19.7114C18.5239 19.715 18.5225 19.6789 18.518 19.6628C18.4864 19.5559 18.434 19.5243 18.3677 19.5198C18.3028 19.5132 18.2233 19.536 18.1437 19.5448C18.0767 19.5522 18.0531 19.4579 18.0221 19.3806C17.9897 19.3039 17.9543 19.2383 17.846 19.2899C17.7001 19.3591 17.6913 19.2199 17.6242 19.1683C17.4377 19.0261 17.2638 18.8683 17.0634 18.7468C16.9772 18.6996 16.9315 18.6259 16.8711 18.5582C16.7259 18.3813 16.5778 18.2081 16.4179 18.0438C16.3486 17.9834 16.2897 17.9244 16.2507 17.8345Z" fill="#1B1918"/>
</g>
<defs>
<clipPath id="clip0_1_706">
<rect width="42" height="48" fill="white"/>
</clipPath>
</defs>
</svg>
